The.Nutty.Professor.1997.DvDrip.Dual.Audio.Eng-Hindi~MSBHATTI

IMDB:- http://www.imdb.com/title/tt0117218/

PLOT:- Grossly overweight Prof. Sherman Klump, desperate to lose weight takes a special chemical that turns him into the slim but obnoxious Buddy Love.

Director: Tom Shadyac
Writers: Jerry Lewis (1963 motion picture), Bill Richmond (1963 motion picture), and 4 more credits »
Stars: Eddie Murphy, Jada Pinkett Smith and James Coburn

INFO:-

General
Complete name                    : The.Nutty.Professor.1997.DvDrip.Dual.Audio.Eng-Hindi~MSBHATTI
Format                           : Matroska
File size                        : 845 MiB
Duration                         : 1h 31mn
Overall bit rate                 : 1 295 Kbps
Encoded date                     : UTC 2011-06-08 16:47:44
Writing application              : mkvmerge v3.3.0 ('Language') built on Mar 24 2010 14:59:24
Writing library                  : libebml v0.8.0 + libmatroska v0.9.0

Video
ID                               : 1
Format                           : MPEG-4 Visual
Format profile                   : Simple@L3
Format settings, BVOP            : Yes
Format settings, QPel            : No
Format settings, GMC             : No warppoints
Format settings, Matrix          : Default (MPEG)
Codec ID                         : XVID
Codec ID/Hint                    : XviD
Duration                         : 1h 31mn
Bit rate                         : 821 Kbps
Width                            : 576 pixels
Height                           : 304 pixels
Display aspect ratio             : 1.895
Frame rate                       : 25.000 fps
Original frame rate              : 23.976 fps
Color space                      : YUV
Chroma subsampling               : 4:2:0
Bit depth                        : 8 bits
Scan type                        : Progressive
Compression mode                 : Lossy
Bits/(Pixel*Frame)               : 0.188
Stream size                      : 536 MiB (63%)
Writing library                  : XviD 1.0.3 (UTC 2004-12-20)

Audio #1
ID                               : 2
Format                           : AC-3
Format/Info                      : Audio Coding 3
Format profile                   : Dolby Digital
Mode extension                   : CM (complete main)
Codec ID                         : A_AC3
Duration                         : 1h 31mn
Bit rate mode                    : Constant
Bit rate                         : 192 Kbps
Channel(s)                       : 2 channels
Channel positions                : Front: L R
Sampling rate                    : 48.0 KHz
Bit depth                        : 16 bits
Compression mode                 : Lossy
Delay relative to video          : 16ms
Stream size                      : 125 MiB (15%)
Title                            : MSBHATTI
Language                         : English

Audio #2
ID                               : 3
Format                           : MPEG Audio
Format version                   : Version 1
Format profile                   : Layer 3
Codec ID                         : A_MPEG/L3
Codec ID/Hint                    : MP3
Duration                         : 1h 31mn
Bit rate mode                    : Constant
Bit rate                         : 256 Kbps
Channel(s)                       : 2 channels
Sampling rate                    : 48.0 KHz
Compression mode                 : Lossy
Stream size                      : 167 MiB (20%)
Title                            : MSBHATTI
Language                         : Hindi

SCREENSHOTS:-
 
http://i1215.photobucket.com/albums/cc517/msbhatti/TheNuttyProfessorDvDripEng-Hindimkv_snapshot_000233_20110709_134229.jpg 
http://i1215.photobucket.com/albums/cc517/msbhatti/TheNuttyProfessorDvDripEng-Hindimkv_snapshot_000309_20110709_134329.jpg 
http://i1215.photobucket.com/albums/cc517/msbhatti/TheNuttyProfessorDvDripEng-Hindimkv_snapshot_004757_20110709_134657.jpg 
http://i1215.photobucket.com/albums/cc517/msbhatti/TheNuttyProfessorDvDripEng-Hindimkv_snapshot_010426_20110709_134747.jpg 
http://i1215.photobucket.com/albums/cc517/msbhatti/TheNuttyProfessorDvDripEng-Hindimkv_snapshot_011858_20110709_134912.jpg

IF U LIKE MY WORK SO COMMENT PLZ

REGARDS

MSBHATTI



